<?xml version="1.0" standalone="no"?>
<!DOCTYPE svg PUBLIC "-//W3C//DTD SVG 20010904//EN"
 "http://www.w3.org/TR/2001/REC-SVG-20010904/DTD/svg10.dtd">
<svg version="1.0" xmlns="http://www.w3.org/2000/svg"
 width="130.000000pt" height="130.000000pt" viewBox="0 0 130.000000 130.000000"
 preserveAspectRatio="xMidYMid meet">

<g transform="translate(0.000000,130.000000) scale(0.100000,-0.100000)"
fill="#000000" stroke="none">
<path d="M60 650 l0 -240 40 0 40 0 0 68 1 67 63 -67 c63 -67 65 -68 115 -68
28 0 51 2 51 5 0 3 -39 49 -86 102 -74 84 -83 98 -71 111 11 10 13 22 6 45 -5
16 -6 35 -2 41 3 6 -10 -4 -28 -21 -19 -18 -38 -33 -42 -33 -4 0 -7 52 -7 115
l0 115 -40 0 -40 0 0 -240z"/>
<path d="M410 649 l0 -240 43 3 42 3 3 238 2 237 -45 0 -45 0 0 -241z"/>
<path d="M930 669 l0 -220 38 -16 c48 -21 138 -21 178 0 70 36 102 104 91 189
-7 52 -33 88 -82 112 -32 16 -46 18 -87 9 l-48 -10 0 79 0 78 -45 0 -45 0 0
-221z m194 -5 c36 -35 33 -120 -5 -160 -16 -17 -33 -24 -61 -24 l-38 0 0 90
c0 74 3 91 18 99 26 15 69 13 86 -5z"/>
<path d="M570 620 c0 -150 10 -182 62 -199 34 -11 73 -5 118 19 19 10 24 9 37
-10 11 -15 23 -20 46 -18 18 2 31 6 30 11 -2 4 -3 79 -3 167 l0 160 -45 0 -45
0 0 -113 0 -114 -33 -18 c-18 -9 -42 -16 -52 -14 -18 4 -20 14 -23 132 l-3
127 -44 0 -45 0 0 -130z"/>
</g>
</svg>
