<?xml version="1.0" standalone="yes"?>
<svg xmlns="http://www.w3.org/2000/svg" width="512" height="512">
	<path style="fill:#ffffff; stroke:none;" d="M0 0L0 236L1 236C10.148 204.318 65.0339 215 90 215L368 215C360.436 204.262 349.282 195.282 340 186L287 133C276.868 122.868 262.349 112.293 256.352 99C244.651 73.0662 285.07 32.9383 311 45.4028C329.359 54.2279 345.681 77.6807 360 92L464 196L496 228C502.138 234.138 509.388 240.067 511 249L512 249L512 0L0 0z" />
	<path style="fill:#2427e5; stroke:none;" d="M368 215L91 215C69.8268 215 46.9573 212.57 26 215.579C14.6932 217.203 4.9634 222.511 1.10494 234C-0.881805 239.916 0 246.844 0 253C0 269.498 -0.730633 289.421 19 295.211C31.1904 298.789 45.4448 297 58 297L131 297L369 297L309 357L273 393C266.135 399.865 257.907 406.358 255.044 416C247.327 441.988 282.609 475.032 308 468.072C316.345 465.784 322.109 458.891 328 453L357 424L470 311C485.076 295.924 512.237 278.257 511.996 255C511.771 233.3 484.105 215.105 470 201L357 88L328 59C322.109 53.109 316.345 46.2157 308 43.9283C282.042 36.8128 246.99 70.6987 255.221 97C258.178 106.45 266.232 113.232 273 120L308 155L368 215z" />
	<path style="fill:#ffffff; stroke:none;" d="M511 263C509.388 271.933 502.138 277.862 496 284L464 316L360 420C345.681 434.319 329.359 457.772 311 466.597C285.002 479.095 244.657 438.906 256.519 413C262.319 400.332 277.269 389.731 287 380L341 326C350.282 316.718 361.436 307.738 369 297L91 297C64.8775 297 10.5136 307.961 1 275L0 275L0 512L512 512L512 336L512 286L511 263z" />
</svg>
